<mxfile host="app.diagrams.net" modified="2023-04-10T13:07:08.571Z" agent="Mozilla/5.0 (Windows NT 10.0; Win64; x64) AppleWebKit/537.36 (KHTML, like Gecko) Chrome/111.0.0.0 Safari/537.36 OPR/97.0.0.0" etag="hbB7bHbgN1usGqtX5GGV" version="21.1.4">
  <diagram name="PÃ¡gina-1" id="CFHjHU-tRy1a4viiEtZx">
    <mxGraphModel dx="480" dy="581" grid="1" gridSize="10" guides="1" tooltips="1" connect="1" arrows="1" fold="1" page="1" pageScale="1" pageWidth="827" pageHeight="1169" math="0" shadow="0">
      <root>
        <mxCell id="0" />
        <mxCell id="1" parent="0" />
        <mxCell id="wd4e8PFYJihfpnkYh5au-208" value="Singleton" style="swimlane;fontStyle=0;childLayout=stackLayout;horizontal=1;startSize=30;horizontalStack=0;resizeParent=1;resizeParentMax=0;resizeLast=0;collapsible=1;marginBottom=0;whiteSpace=wrap;html=1;" parent="1" vertex="1">
          <mxGeometry x="320" y="530" width="160" height="120" as="geometry" />
        </mxCell>
        <mxCell id="wd4e8PFYJihfpnkYh5au-213" style="edgeStyle=orthogonalEdgeStyle;rounded=0;orthogonalLoop=1;jettySize=auto;html=1;exitX=1;exitY=0.5;exitDx=0;exitDy=0;endArrow=open;endFill=0;startSize=9;endSize=11;" parent="wd4e8PFYJihfpnkYh5au-208" source="wd4e8PFYJihfpnkYh5au-209" edge="1">
          <mxGeometry relative="1" as="geometry">
            <mxPoint x="160" y="20" as="targetPoint" />
            <Array as="points">
              <mxPoint x="210" y="45" />
              <mxPoint x="210" y="20" />
            </Array>
          </mxGeometry>
        </mxCell>
        <mxCell id="wd4e8PFYJihfpnkYh5au-209" value="-instace: Singleton" style="text;strokeColor=none;fillColor=none;align=left;verticalAlign=middle;spacingLeft=4;spacingRight=4;overflow=hidden;points=[[0,0.5],[1,0.5]];portConstraint=eastwest;rotatable=0;whiteSpace=wrap;html=1;" parent="wd4e8PFYJihfpnkYh5au-208" vertex="1">
          <mxGeometry y="30" width="160" height="30" as="geometry" />
        </mxCell>
        <mxCell id="wd4e8PFYJihfpnkYh5au-210" value="-Singleton()" style="text;strokeColor=none;fillColor=none;align=left;verticalAlign=middle;spacingLeft=4;spacingRight=4;overflow=hidden;points=[[0,0.5],[1,0.5]];portConstraint=eastwest;rotatable=0;whiteSpace=wrap;html=1;" parent="wd4e8PFYJihfpnkYh5au-208" vertex="1">
          <mxGeometry y="60" width="160" height="30" as="geometry" />
        </mxCell>
        <mxCell id="wd4e8PFYJihfpnkYh5au-212" value="" style="endArrow=none;html=1;rounded=0;entryX=1.009;entryY=0.953;entryDx=0;entryDy=0;entryPerimeter=0;" parent="wd4e8PFYJihfpnkYh5au-208" edge="1" target="wd4e8PFYJihfpnkYh5au-209">
          <mxGeometry width="50" height="50" relative="1" as="geometry">
            <mxPoint y="58" as="sourcePoint" />
            <mxPoint x="150" y="58" as="targetPoint" />
            <Array as="points" />
          </mxGeometry>
        </mxCell>
        <mxCell id="wd4e8PFYJihfpnkYh5au-211" value="+getInstance(): Singleton&lt;br&gt;+addAnimal(String animal)" style="text;strokeColor=none;fillColor=none;align=left;verticalAlign=middle;spacingLeft=4;spacingRight=4;overflow=hidden;points=[[0,0.5],[1,0.5]];portConstraint=eastwest;rotatable=0;whiteSpace=wrap;html=1;" parent="wd4e8PFYJihfpnkYh5au-208" vertex="1">
          <mxGeometry y="90" width="160" height="30" as="geometry" />
        </mxCell>
      </root>
    </mxGraphModel>
  </diagram>
</mxfile>
